<?xml version="1.0" encoding="utf-8"?>
<!-- Generator: Adobe Illustrator 23.0.2, SVG Export Plug-In . SVG Version: 6.00 Build 0)  -->
<svg version="1.1" id="Layer_1" xmlns="http://www.w3.org/2000/svg" xmlns:xlink="http://www.w3.org/1999/xlink" x="0px" y="0px"
	 viewBox="0 0 216.3 135.3" style="enable-background:new 0 0 216.3 135.3;" xml:space="preserve">
<path d="M51.8,109.9c3.1-2.9,6.3-5.6,8.4-9.3c-2.8-1.8-7.2-1.1-10.4-1.1c-4.9,0-9,0.8-13.5,1.8c-5.9,1.3-16,3-21.8,0.7
	c-1-0.4-12.9-5.1-12.7-5.7c-0.5,1.5,0.5,3.8,0.6,5.5c0.1,1.8-0.3,3.3-0.5,5c-0.3,3.4-0.6,6.8-0.7,10.3c0,2.8-0.8,3.4,1.9,4.6
	c3.1,1.3,6.6,1.1,10.1,1.4c3.6,0.3,7.5,0,11.2,0.1c2.2,0.1,4.5,0,6.8,0c1.7,0,4,0.4,5.7,0c1.6-0.4,1.9-1.8,2.9-2.9
	c1.9-2.1,4.8-2,6.8-4C48.7,114.4,49.8,111.8,51.8,109.9z"/>
<polygon points="2,45.1 105.6,45.1 105.6,45.5 79.8,47.2 2,47.2 "/>
<polygon points="1.8,51.2 55,51.2 55,51.5 42,53.2 1.6,53.2 "/>
<rect x="2" y="23.6" width="210.7" height="5"/>
<rect x="1.4" y="32" width="211.9" height="3.9"/>
<rect x="2.4" y="39.3" width="211.5" height="2"/>
<g>
	<path d="M116.8,14c0.2,0,0.4-0.1,0.6-0.2c0.2-0.1,0.4-0.3,0.5-0.5c0.1-0.2,0.2-0.5,0.2-0.8V10c0-0.6-0.1-1.1-0.3-1.4
		c-0.2-0.3-0.5-0.4-0.9-0.4c-0.3,0-0.6,0.1-0.8,0.3c-0.2,0.2-0.4,0.6-0.5,1c-0.1,0.4-0.2,0.9-0.2,1.5c0,1,0.1,1.7,0.3,2.2
		C116,13.7,116.4,14,116.8,14z"/>
	<path d="M98.2,13.1c0,0.3,0.1,0.6,0.2,0.7c0.2,0.2,0.4,0.2,0.7,0.2c0.2,0,0.4-0.1,0.6-0.2c0.2-0.1,0.4-0.3,0.5-0.5
		c0.1-0.2,0.2-0.4,0.2-0.7v-1.3c-0.7,0-1.3,0.2-1.7,0.4C98.4,12.2,98.2,12.6,98.2,13.1z"/>
	<path d="M44.4,8.7c-0.2-0.4-0.5-0.6-0.8-0.6c-0.4,0-0.7,0.2-0.9,0.6c-0.2,0.4-0.4,1-0.4,1.7h2.4C44.7,9.7,44.6,9.1,44.4,8.7z"/>
	<path d="M78.9,13.1c0,0.3,0.1,0.6,0.2,0.7c0.2,0.2,0.4,0.2,0.7,0.2c0.2,0,0.4-0.1,0.6-0.2c0.2-0.1,0.4-0.3,0.5-0.5
		c0.1-0.2,0.2-0.4,0.2-0.7v-1.3c-0.7,0-1.3,0.2-1.7,0.4C79,12.2,78.9,12.6,78.9,13.1z"/>
	<path d="M182,13.1c0,0.3,0.1,0.6,0.2,0.7c0.2,0.2,0.4,0.2,0.7,0.2c0.2,0,0.4-0.1,0.6-0.2c0.2-0.1,0.4-0.3,0.5-0.5
		c0.1-0.2,0.2-0.4,0.2-0.7v-1.3c-0.7,0-1.3,0.2-1.7,0.4C182.2,12.2,182,12.6,182,13.1z"/>
	<path d="M162.2,8.7c-0.2-0.4-0.5-0.6-0.8-0.6c-0.4,0-0.7,0.2-0.9,0.6c-0.2,0.4-0.4,1-0.4,1.7h2.4C162.5,9.7,162.4,9.1,162.2,8.7z"
		/>
	<path d="M137.4,14.4c0.3,0,0.5-0.1,0.6-0.2c0.2-0.1,0.3-0.3,0.4-0.6c0.1-0.3,0.2-0.6,0.2-0.9c0-0.4,0.1-0.8,0.1-1.2
		c0-1.1-0.1-1.9-0.3-2.4c-0.2-0.5-0.6-0.8-1-0.8c-0.3,0-0.6,0.1-0.8,0.3c-0.2,0.2-0.3,0.5-0.4,1c-0.1,0.4-0.1,1-0.1,1.7
		c0,1.1,0.1,1.9,0.3,2.4C136.6,14.1,136.9,14.4,137.4,14.4z"/>
	<path d="M0,0l0,135.3h216.3l0-135.3H0z M203.5,7.5h3.6V8c-0.2,0-0.4,0.1-0.5,0.2c-0.1,0.1-0.2,0.2-0.2,0.4c0,0.2,0.1,0.6,0.2,1
		l1,3.3l1.2-2.9c0.1-0.2,0.2-0.5,0.2-0.6c0-0.2,0.1-0.4,0.1-0.5c0-0.2-0.1-0.4-0.2-0.5c-0.1-0.1-0.3-0.2-0.5-0.3V7.5h2.8V8
		c-0.1,0-0.3,0.1-0.3,0.2c-0.1,0.1-0.2,0.2-0.2,0.3c-0.1,0.1-0.2,0.3-0.3,0.5c-0.1,0.2-0.3,0.5-0.4,1l-2.4,5.5
		c-0.3,0.7-0.6,1.3-0.9,1.7c-0.3,0.4-0.6,0.7-0.9,0.9c-0.3,0.2-0.7,0.3-1.2,0.3c-0.4,0-0.7,0-1-0.1v-1.7h0.8
		c0.1,0.2,0.1,0.4,0.2,0.5c0.1,0.1,0.2,0.1,0.4,0.1c0.2,0,0.3-0.1,0.5-0.2c0.1-0.1,0.3-0.3,0.5-0.6c0.2-0.3,0.4-0.7,0.7-1.3h-0.4
		l-1.9-5.7c-0.1-0.4-0.2-0.7-0.3-0.8c-0.1-0.1-0.2-0.3-0.3-0.3c-0.1-0.1-0.2-0.1-0.4-0.2V7.5z M197.6,9.2c0.3-0.6,0.7-1.1,1.3-1.4
		c0.6-0.3,1.2-0.5,1.9-0.5c0.4,0,0.8,0,1.2,0.1c0.4,0.1,0.7,0.1,1.1,0.2v1.8h-1.4c-0.1-0.5-0.2-0.8-0.3-1c-0.1-0.2-0.4-0.3-0.6-0.3
		c-0.2,0-0.3,0-0.5,0.1c-0.2,0.1-0.3,0.3-0.4,0.5c-0.1,0.2-0.2,0.5-0.3,0.9c-0.1,0.4-0.1,0.9-0.1,1.5c0,0.6,0.1,1.1,0.2,1.5
		c0.1,0.4,0.3,0.7,0.5,0.9c0.2,0.2,0.5,0.3,0.9,0.3c0.3,0,0.5-0.1,0.8-0.2c0.2-0.1,0.5-0.4,0.9-0.7l0.6,0.7c-0.5,0.5-0.9,0.8-1.4,1
		c-0.4,0.2-0.9,0.3-1.4,0.3c-1,0-1.8-0.3-2.4-1c-0.5-0.6-0.8-1.6-0.8-2.8C197.1,10.6,197.3,9.8,197.6,9.2z M188,7.5l2-0.1h0.9
		l-0.1,1.1l0.1,0c0.3-0.3,0.6-0.5,0.8-0.7c0.2-0.2,0.5-0.3,0.7-0.4c0.2-0.1,0.5-0.1,0.8-0.1c0.4,0,0.7,0.1,1,0.2
		c0.3,0.1,0.5,0.3,0.6,0.5c0.2,0.2,0.3,0.5,0.3,0.8c0.1,0.3,0.1,0.7,0.1,1.1v2.8c0,0.2,0,0.4,0,0.6c0,0.2,0,0.4,0.1,0.5
		s0.1,0.2,0.1,0.3c0.1,0.1,0.1,0.1,0.2,0.2c0.1,0.1,0.2,0.1,0.3,0.1v0.5h-3.5v-0.5c0.2-0.1,0.4-0.1,0.5-0.2c0.1-0.1,0.1-0.3,0.2-0.4
		c0-0.2,0-0.5,0-1v-2c0-0.4,0-0.7,0-0.9c0-0.2,0-0.4-0.1-0.6c0-0.1-0.1-0.3-0.1-0.4c-0.1-0.1-0.1-0.2-0.2-0.2
		c-0.1-0.1-0.1-0.1-0.2-0.1c-0.1,0-0.2,0-0.3,0c-0.2,0-0.4,0.1-0.6,0.2c-0.2,0.1-0.4,0.3-0.5,0.5c-0.1,0.2-0.2,0.4-0.2,0.7v2.9
		c0,0.5,0,0.8,0,1c0,0.2,0.1,0.3,0.2,0.4c0.1,0.1,0.2,0.2,0.5,0.2v0.5h-3.5v-0.5c0.2-0.1,0.4-0.2,0.5-0.3c0.1-0.1,0.1-0.3,0.2-0.4
		c0-0.2,0-0.5,0-1V9.7c0-0.4,0-0.7,0-0.8c0-0.2,0-0.3-0.1-0.4c0-0.1-0.1-0.2-0.2-0.3c-0.1-0.1-0.3-0.1-0.5-0.2V7.5z M184.1,8.9
		c-0.1-0.3-0.2-0.4-0.4-0.5c-0.2-0.1-0.3-0.2-0.6-0.2c-0.2,0-0.4,0-0.6,0.1c-0.2,0.1-0.3,0.2-0.4,0.5c-0.1,0.2-0.2,0.5-0.3,0.9h-1.4
		V8.3c0.4-0.2,0.8-0.4,1.1-0.5c0.3-0.1,0.6-0.2,0.9-0.3c0.3-0.1,0.5-0.1,0.8-0.2c0.2,0,0.5,0,0.7,0c0.6,0,1.1,0.1,1.4,0.2
		c0.3,0.2,0.6,0.4,0.8,0.8c0.2,0.4,0.3,0.9,0.3,1.5v3c0,0.3,0,0.6,0,0.8c0,0.2,0,0.3,0.1,0.4c0,0.1,0.1,0.2,0.1,0.2
		c0,0.1,0.1,0.1,0.2,0.1c0.1,0,0.2,0.1,0.4,0.1v0.5h-2.7l0.1-1l-0.1,0c-0.4,0.4-0.8,0.7-1.2,0.9c-0.4,0.2-0.8,0.3-1.2,0.3
		c-0.4,0-0.8-0.1-1.1-0.2c-0.3-0.2-0.5-0.4-0.7-0.7c-0.2-0.3-0.2-0.6-0.2-1c0-0.7,0.3-1.3,1-1.8c0.7-0.4,1.8-0.7,3.2-0.8V10
		C184.2,9.5,184.2,9.2,184.1,8.9z M172.2,7.5h3.6V8c-0.2,0-0.4,0.1-0.5,0.2c-0.1,0.1-0.2,0.2-0.2,0.4c0,0.2,0.1,0.6,0.2,1l1,3.3
		l1.2-2.9c0.1-0.2,0.2-0.5,0.2-0.6c0-0.2,0.1-0.4,0.1-0.5c0-0.2-0.1-0.4-0.2-0.5c-0.1-0.1-0.3-0.2-0.5-0.3V7.5h2.8V8
		c-0.1,0-0.3,0.1-0.3,0.2c-0.1,0.1-0.2,0.2-0.2,0.3c-0.1,0.1-0.2,0.3-0.3,0.5c-0.1,0.2-0.3,0.5-0.4,1l-2.3,5.3H175l-1.9-5.8
		c-0.1-0.4-0.2-0.7-0.3-0.8c-0.1-0.1-0.2-0.3-0.3-0.3c-0.1-0.1-0.2-0.1-0.4-0.2V7.5z M165.7,7.5l2-0.1h0.9l-0.1,1.1l0.1,0
		c0.4-0.4,0.7-0.8,1.1-0.9c0.4-0.2,0.8-0.3,1.2-0.3c0.3,0,0.6,0,0.9,0.1v2.1h-1.3c-0.1-0.3-0.2-0.5-0.3-0.7
		c-0.1-0.2-0.3-0.2-0.5-0.2c-0.1,0-0.2,0-0.4,0.1c-0.1,0.1-0.2,0.2-0.4,0.3c-0.1,0.1-0.2,0.3-0.2,0.4c0,0.1-0.1,0.3-0.1,0.4
		c0,0.1,0,0.3,0,0.6v2.4c0,0.5,0,0.8,0.1,1c0,0.2,0.1,0.3,0.2,0.5c0.1,0.1,0.3,0.2,0.5,0.2v0.5h-3.6v-0.5c0.2-0.1,0.4-0.2,0.5-0.3
		c0.1-0.1,0.1-0.3,0.2-0.4c0-0.2,0-0.5,0-1V9.7c0-0.4,0-0.7,0-0.8c0-0.2,0-0.3-0.1-0.4c0-0.1-0.1-0.2-0.2-0.3
		c-0.1-0.1-0.3-0.1-0.5-0.2V7.5z M158.4,9.2c0.3-0.6,0.7-1,1.2-1.4c0.5-0.3,1.2-0.5,1.9-0.5c0.4,0,0.8,0.1,1.2,0.2
		c0.3,0.1,0.6,0.3,0.9,0.4c0.2,0.2,0.4,0.4,0.6,0.7c0.2,0.3,0.3,0.7,0.4,1.1c0.1,0.4,0.1,0.9,0.2,1.5h-4.6c0,0.9,0.2,1.6,0.5,2
		c0.3,0.4,0.8,0.7,1.4,0.7c0.4,0,0.7-0.1,1-0.2c0.3-0.1,0.6-0.4,1-0.8l0.6,0.7c-0.5,0.5-1,0.9-1.5,1.2c-0.5,0.2-1,0.3-1.7,0.3
		c-1.1,0-2-0.3-2.5-1c-0.6-0.6-0.9-1.6-0.9-2.9C158,10.5,158.1,9.8,158.4,9.2z M151.1,13h1c0.1,0.5,0.3,0.8,0.5,1
		c0.3,0.2,0.6,0.3,1,0.3c0.4,0,0.6-0.1,0.8-0.3c0.2-0.2,0.3-0.4,0.3-0.8c0-0.2,0-0.4-0.1-0.5c-0.1-0.1-0.2-0.3-0.4-0.4
		c-0.2-0.1-0.5-0.3-1-0.5c-0.3-0.1-0.5-0.3-0.7-0.4c-0.2-0.1-0.4-0.3-0.6-0.5c-0.2-0.2-0.3-0.4-0.4-0.6c-0.1-0.2-0.2-0.5-0.2-0.8
		c0-0.5,0.1-0.9,0.4-1.2c0.3-0.3,0.6-0.6,1.1-0.8c0.5-0.2,1-0.3,1.6-0.3c0.4,0,0.7,0,1,0c0.3,0,0.8,0.1,1.3,0.2v1.8h-1
		c-0.1-0.3-0.2-0.6-0.4-0.8c-0.1-0.2-0.3-0.3-0.4-0.4c-0.2-0.1-0.4-0.1-0.6-0.1c-0.3,0-0.6,0.1-0.8,0.2c-0.2,0.2-0.3,0.4-0.3,0.6
		c0,0.2,0,0.4,0.1,0.5c0.1,0.1,0.2,0.3,0.4,0.4c0.2,0.1,0.5,0.3,1,0.5c0.5,0.2,0.8,0.4,1.1,0.6c0.3,0.2,0.5,0.5,0.7,0.7
		c0.1,0.3,0.2,0.6,0.2,1c0,0.4-0.1,0.8-0.2,1.1c-0.1,0.3-0.3,0.5-0.6,0.7c-0.3,0.2-0.6,0.3-0.9,0.4c-0.4,0.1-0.8,0.1-1.2,0.1
		c-0.8,0-1.7-0.1-2.7-0.4V13z M142.1,7.5l2-0.1h0.9l-0.1,1.1l0.1,0c0.3-0.3,0.6-0.5,0.8-0.7c0.2-0.2,0.5-0.3,0.7-0.4
		c0.2-0.1,0.5-0.1,0.8-0.1c0.4,0,0.7,0.1,1,0.2c0.3,0.1,0.5,0.3,0.6,0.5c0.2,0.2,0.3,0.5,0.3,0.8c0.1,0.3,0.1,0.7,0.1,1.1v2.8
		c0,0.2,0,0.4,0,0.6c0,0.2,0,0.4,0.1,0.5s0.1,0.2,0.1,0.3c0.1,0.1,0.1,0.1,0.2,0.2c0.1,0.1,0.2,0.1,0.3,0.1v0.5h-3.5v-0.5
		c0.2-0.1,0.4-0.1,0.5-0.2c0.1-0.1,0.1-0.3,0.2-0.4c0-0.2,0-0.5,0-1v-2c0-0.4,0-0.7,0-0.9c0-0.2,0-0.4-0.1-0.6
		c0-0.1-0.1-0.3-0.1-0.4c-0.1-0.1-0.1-0.2-0.2-0.2c-0.1-0.1-0.1-0.1-0.2-0.1c-0.1,0-0.2,0-0.3,0c-0.2,0-0.4,0.1-0.6,0.2
		c-0.2,0.1-0.4,0.3-0.5,0.5c-0.1,0.2-0.2,0.4-0.2,0.7v2.9c0,0.5,0,0.8,0,1c0,0.2,0.1,0.3,0.2,0.4c0.1,0.1,0.2,0.2,0.5,0.2v0.5h-3.5
		v-0.5c0.2-0.1,0.4-0.2,0.5-0.3c0.1-0.1,0.1-0.3,0.2-0.4c0-0.2,0-0.5,0-1V9.7c0-0.4,0-0.7,0-0.8s0-0.3-0.1-0.4
		c0-0.1-0.1-0.2-0.2-0.3c-0.1-0.1-0.3-0.1-0.5-0.2V7.5z M134.1,9.6c0.2-0.5,0.4-0.9,0.7-1.2c0.3-0.3,0.7-0.6,1.1-0.7
		c0.4-0.2,0.9-0.2,1.4-0.2c1.2,0,2,0.3,2.6,1c0.6,0.6,0.9,1.6,0.9,2.8c0,0.9-0.1,1.6-0.4,2.2c-0.3,0.6-0.7,1-1.3,1.3
		c-0.5,0.3-1.2,0.4-1.9,0.4c-0.7,0-1.3-0.1-1.8-0.4c-0.5-0.3-0.9-0.7-1.2-1.3c-0.3-0.6-0.4-1.3-0.4-2.2
		C133.8,10.7,133.9,10.1,134.1,9.6z M126,7.1c0.4-0.8,0.9-1.4,1.6-1.9c0.7-0.4,1.5-0.7,2.5-0.7c0.5,0,0.9,0,1.3,0.1
		c0.4,0.1,0.8,0.1,1.2,0.3v2.2h-1c-0.1-0.6-0.3-1-0.6-1.3c-0.2-0.3-0.6-0.4-1-0.4c-0.8,0-1.3,0.4-1.7,1.2c-0.4,0.8-0.6,1.9-0.6,3.4
		c0,1.4,0.2,2.5,0.5,3.2c0.4,0.7,0.9,1.1,1.6,1.1c0.4,0,0.6-0.1,0.9-0.2c0.2-0.1,0.4-0.3,0.5-0.6c0.1-0.2,0.2-0.6,0.3-1.1h1v2.3
		c-0.5,0.1-1,0.2-1.5,0.3c-0.4,0.1-0.9,0.1-1.4,0.1c-1,0-1.8-0.2-2.5-0.6c-0.6-0.4-1.1-1-1.4-1.7c-0.3-0.8-0.5-1.7-0.5-2.9
		C125.5,8.9,125.7,7.9,126,7.1z M113.7,9.2c0.3-0.6,0.7-1,1.2-1.3c0.5-0.3,1.2-0.5,1.9-0.5c0.2,0,0.4,0,0.6,0c0.2,0,0.4,0.1,0.7,0.2
		V6.9c0-0.5,0-0.9,0-1.2c0-0.2,0-0.4-0.1-0.5c0-0.1-0.1-0.2-0.2-0.3c-0.1-0.1-0.3-0.1-0.5-0.2V4.3l2-0.1h0.9v8.7c0,0.4,0,0.7,0,0.8
		c0,0.2,0,0.3,0.1,0.4c0,0.1,0.1,0.2,0.2,0.3c0.1,0.1,0.3,0.1,0.5,0.2v0.5l-2,0.1h-0.9l0.1-1.1l-0.1,0c-0.3,0.4-0.7,0.7-1.1,0.9
		c-0.4,0.2-0.8,0.3-1.1,0.3c-0.9,0-1.5-0.3-2-1c-0.4-0.6-0.7-1.6-0.7-2.9C113.3,10.5,113.5,9.8,113.7,9.2z M104.2,7.5l2-0.1h0.9
		L107,8.5l0.1,0c0.3-0.3,0.6-0.5,0.8-0.7c0.2-0.2,0.5-0.3,0.7-0.4c0.2-0.1,0.5-0.1,0.8-0.1c0.4,0,0.7,0.1,1,0.2
		c0.3,0.1,0.5,0.3,0.6,0.5c0.2,0.2,0.3,0.5,0.3,0.8c0.1,0.3,0.1,0.7,0.1,1.1v2.8c0,0.2,0,0.4,0,0.6c0,0.2,0,0.4,0.1,0.5
		s0.1,0.2,0.1,0.3c0.1,0.1,0.1,0.1,0.2,0.2c0.1,0.1,0.2,0.1,0.3,0.1v0.5h-3.5v-0.5c0.2-0.1,0.4-0.1,0.5-0.2c0.1-0.1,0.1-0.3,0.2-0.4
		c0-0.2,0-0.5,0-1v-2c0-0.4,0-0.7,0-0.9c0-0.2,0-0.4-0.1-0.6c0-0.1-0.1-0.3-0.1-0.4c-0.1-0.1-0.1-0.2-0.2-0.2s-0.1-0.1-0.2-0.1
		c-0.1,0-0.2,0-0.3,0c-0.2,0-0.4,0.1-0.6,0.2c-0.2,0.1-0.4,0.3-0.5,0.5c-0.1,0.2-0.2,0.4-0.2,0.7v2.9c0,0.5,0,0.8,0,1
		c0,0.2,0.1,0.3,0.2,0.4c0.1,0.1,0.2,0.2,0.5,0.2v0.5h-3.5v-0.5c0.2-0.1,0.4-0.2,0.5-0.3c0.1-0.1,0.1-0.3,0.2-0.4c0-0.2,0-0.5,0-1
		V9.7c0-0.4,0-0.7,0-0.8c0-0.2,0-0.3-0.1-0.4c0-0.1-0.1-0.2-0.2-0.3c-0.1-0.1-0.3-0.1-0.5-0.2V7.5z M100.2,8.9
		c-0.1-0.3-0.2-0.4-0.4-0.5c-0.2-0.1-0.4-0.2-0.6-0.2c-0.2,0-0.4,0-0.6,0.1c-0.2,0.1-0.3,0.2-0.4,0.5C98.1,9,98,9.3,98,9.7h-1.4V8.3
		c0.4-0.2,0.8-0.4,1.1-0.5c0.3-0.1,0.6-0.2,0.9-0.3c0.3-0.1,0.5-0.1,0.8-0.2c0.2,0,0.5,0,0.7,0c0.6,0,1.1,0.1,1.4,0.2
		c0.3,0.2,0.6,0.4,0.8,0.8c0.2,0.4,0.3,0.9,0.3,1.5v3c0,0.3,0,0.6,0,0.8c0,0.2,0,0.3,0.1,0.4c0,0.1,0.1,0.2,0.1,0.2
		c0,0.1,0.1,0.1,0.2,0.1c0.1,0,0.2,0.1,0.4,0.1v0.5h-2.7l0.1-1l-0.1,0c-0.4,0.4-0.8,0.7-1.2,0.9c-0.4,0.2-0.8,0.3-1.2,0.3
		c-0.4,0-0.8-0.1-1.1-0.2c-0.3-0.2-0.5-0.4-0.7-0.7c-0.2-0.3-0.2-0.6-0.2-1c0-0.7,0.3-1.3,1-1.8c0.7-0.4,1.8-0.7,3.2-0.8V10
		C100.4,9.5,100.4,9.2,100.2,8.9z M88.3,14.6c0.2-0.1,0.3-0.1,0.4-0.2c0.1-0.1,0.2-0.1,0.2-0.2C89,14,89,13.9,89,13.7
		c0-0.2,0-0.4,0-0.6V6.6c0-0.2,0-0.4,0-0.6c0-0.2,0-0.3-0.1-0.4c-0.1-0.1-0.1-0.2-0.2-0.2c-0.1-0.1-0.2-0.1-0.4-0.2V4.7h3.8v0.5
		c-0.2,0.1-0.3,0.1-0.4,0.2c-0.1,0.1-0.2,0.1-0.2,0.2c-0.1,0.1-0.1,0.2-0.1,0.4c0,0.2,0,0.4,0,0.6v7.6h1.4c0.3,0,0.5,0,0.7-0.1
		c0.2-0.1,0.3-0.2,0.4-0.4c0.1-0.2,0.2-0.4,0.3-0.7c0.1-0.3,0.2-0.6,0.2-0.9h1l-0.2,3.1h-6.9V14.6z M80.9,8.9
		c-0.1-0.3-0.2-0.4-0.4-0.5c-0.2-0.1-0.4-0.2-0.6-0.2c-0.2,0-0.4,0-0.6,0.1c-0.2,0.1-0.3,0.2-0.4,0.5c-0.1,0.2-0.2,0.5-0.3,0.9h-1.4
		V8.3c0.4-0.2,0.8-0.4,1.1-0.5c0.3-0.1,0.6-0.2,0.9-0.3c0.3-0.1,0.5-0.1,0.8-0.2c0.2,0,0.5,0,0.7,0c0.6,0,1.1,0.1,1.4,0.2
		c0.3,0.2,0.6,0.4,0.8,0.8c0.2,0.4,0.3,0.9,0.3,1.5v3c0,0.3,0,0.6,0,0.8c0,0.2,0,0.3,0.1,0.4c0,0.1,0.1,0.2,0.1,0.2
		c0,0.1,0.1,0.1,0.2,0.1c0.1,0,0.2,0.1,0.4,0.1v0.5h-2.7l0.1-1l-0.1,0c-0.4,0.4-0.8,0.7-1.2,0.9c-0.4,0.2-0.8,0.3-1.2,0.3
		c-0.4,0-0.8-0.1-1.1-0.2c-0.3-0.2-0.5-0.4-0.7-0.7c-0.2-0.3-0.2-0.6-0.2-1c0-0.7,0.3-1.3,1-1.8c0.7-0.4,1.8-0.7,3.2-0.8V10
		C81,9.5,81,9.2,80.9,8.9z M63.7,7.5l2-0.1h0.9l-0.1,1.1l0.1,0c0.4-0.4,0.8-0.7,1.2-0.9c0.4-0.2,0.7-0.3,1.1-0.3
		c0.4,0,0.7,0,0.9,0.1c0.2,0.1,0.4,0.2,0.6,0.4c0.2,0.2,0.3,0.4,0.4,0.7c0.5-0.5,0.9-0.8,1.3-1c0.4-0.2,0.7-0.3,1.1-0.3
		c0.4,0,0.7,0.1,1,0.2c0.3,0.1,0.5,0.3,0.6,0.5c0.2,0.2,0.3,0.5,0.4,0.8c0.1,0.3,0.1,0.7,0.1,1.2v2.8c0,0.2,0,0.4,0,0.6
		c0,0.2,0,0.4,0.1,0.5c0,0.1,0.1,0.2,0.1,0.3c0.1,0.1,0.1,0.1,0.2,0.2c0.1,0.1,0.2,0.1,0.3,0.1v0.5h-3.5v-0.5
		c0.2-0.1,0.4-0.1,0.4-0.2c0.1-0.1,0.1-0.3,0.2-0.4c0-0.2,0-0.5,0-1v-2c0-0.5,0-0.8,0-1.1C73,9.4,73,9.2,72.9,9
		c-0.1-0.2-0.2-0.3-0.3-0.4c-0.1-0.1-0.3-0.1-0.4-0.1c-0.1,0-0.2,0-0.3,0.1c-0.1,0-0.2,0.1-0.3,0.2c-0.1,0.1-0.2,0.2-0.3,0.3
		c-0.1,0.1-0.1,0.2-0.2,0.3c0,0.1-0.1,0.2-0.1,0.4c0,0.1,0,0.3,0,0.6v2.5c0,0.3,0,0.6,0,0.8c0,0.2,0,0.3,0.1,0.4
		c0,0.1,0.1,0.2,0.2,0.3c0.1,0.1,0.2,0.1,0.4,0.2v0.5h-3.4v-0.5c0.2-0.1,0.4-0.1,0.5-0.2c0.1-0.1,0.1-0.3,0.2-0.4c0-0.2,0-0.5,0-1
		v-2c0-0.3,0-0.6,0-0.8c0-0.2,0-0.4-0.1-0.6c0-0.1-0.1-0.3-0.1-0.4c-0.1-0.1-0.1-0.2-0.2-0.3c-0.1-0.1-0.1-0.1-0.2-0.2
		c-0.1,0-0.2-0.1-0.3-0.1c-0.2,0-0.4,0.1-0.6,0.2C67.1,8.9,67,9,66.8,9.2c-0.1,0.2-0.2,0.4-0.2,0.7v2.9c0,0.5,0,0.8,0,1
		c0,0.2,0.1,0.3,0.2,0.4c0.1,0.1,0.2,0.2,0.5,0.2v0.5h-3.5v-0.5c0.2-0.1,0.4-0.2,0.5-0.3c0.1-0.1,0.1-0.3,0.2-0.4c0-0.2,0-0.5,0-1
		V9.7c0-0.4,0-0.7,0-0.8c0-0.2,0-0.3-0.1-0.4c0-0.1-0.1-0.2-0.2-0.3C64.1,8.1,64,8.1,63.7,8V7.5z M54.8,7.5h2.8v4.2
		c0,0.5,0,0.9,0,1.1c0,0.3,0.1,0.5,0.2,0.7c0.1,0.2,0.2,0.3,0.3,0.4c0.1,0.1,0.3,0.1,0.5,0.1c0.2,0,0.4-0.1,0.6-0.2
		c0.2-0.1,0.4-0.3,0.5-0.5c0.1-0.2,0.2-0.4,0.2-0.7V9.7c0-0.4,0-0.6,0-0.8c0-0.2,0-0.3-0.1-0.4c0-0.1-0.1-0.2-0.2-0.3
		c-0.1-0.1-0.2-0.1-0.4-0.2V7.5H62v5.3c0,0.4,0,0.7,0,0.8c0,0.2,0,0.3,0.1,0.4c0,0.1,0.1,0.2,0.2,0.3c0.1,0.1,0.3,0.1,0.5,0.2v0.5
		l-2,0.1h-0.9L60,14l-0.1,0c-0.4,0.4-0.8,0.7-1.2,0.9c-0.4,0.2-0.7,0.3-1.1,0.3c-0.5,0-0.9-0.1-1.2-0.3c-0.3-0.2-0.5-0.5-0.7-0.9
		c-0.1-0.4-0.2-0.9-0.2-1.5V9.7c0-0.3,0-0.5,0-0.7c0-0.2,0-0.3,0-0.4c0-0.1,0-0.2-0.1-0.2c0-0.1-0.1-0.1-0.1-0.2
		c0-0.1-0.1-0.1-0.2-0.2c-0.1,0-0.2-0.1-0.3-0.1V7.5z M47.7,14.6l3.7-6.2H50c-0.2,0-0.4,0-0.6,0.1c-0.1,0.1-0.3,0.2-0.4,0.4
		c-0.1,0.2-0.2,0.5-0.4,1h-0.9V7.5h6.1V8l-3.7,6.2h1.5c0.2,0,0.4,0,0.6-0.1c0.2-0.1,0.3-0.3,0.4-0.5c0.1-0.2,0.2-0.6,0.3-1h0.9v2.5
		h-6.2V14.6z M40.6,9.2c0.3-0.6,0.7-1,1.2-1.4c0.5-0.3,1.2-0.5,1.9-0.5c0.4,0,0.8,0.1,1.2,0.2c0.3,0.1,0.6,0.3,0.9,0.4
		c0.2,0.2,0.4,0.4,0.6,0.7c0.2,0.3,0.3,0.7,0.4,1.1c0.1,0.4,0.1,0.9,0.2,1.5h-4.6c0,0.9,0.2,1.6,0.5,2c0.3,0.4,0.8,0.7,1.4,0.7
		c0.4,0,0.7-0.1,1-0.2c0.3-0.1,0.6-0.4,1-0.8l0.6,0.7c-0.5,0.5-1,0.9-1.5,1.2c-0.5,0.2-1,0.3-1.7,0.3c-1.1,0-2-0.3-2.5-1
		c-0.6-0.6-0.9-1.6-0.9-2.9C40.2,10.5,40.3,9.8,40.6,9.2z M34.6,7.9c0.3-0.1,0.5-0.1,0.7-0.2c0.1-0.1,0.2-0.2,0.3-0.4
		c0.1-0.2,0.1-0.4,0.2-0.7c0-0.3,0.1-0.6,0.1-1h1.7v1.9h2.1v1h-2.1v3.4c0,0.6,0,1,0.1,1.3c0.1,0.3,0.1,0.5,0.3,0.6
		c0.1,0.1,0.3,0.2,0.4,0.2c0.1,0,0.3,0,0.4,0c0.1,0,0.2-0.1,0.3-0.1c0.1-0.1,0.2-0.2,0.4-0.3l0.5,0.6c-0.4,0.4-0.8,0.6-1.2,0.8
		c-0.3,0.2-0.7,0.2-1.1,0.2c-0.7,0-1.3-0.2-1.6-0.6c-0.4-0.4-0.5-1-0.5-1.9V8.5h-0.9V7.9z M25.9,7.5l2-0.1h0.9l-0.1,1.1l0.1,0
		c0.3-0.3,0.6-0.5,0.8-0.7c0.2-0.2,0.5-0.3,0.7-0.4c0.2-0.1,0.5-0.1,0.8-0.1c0.4,0,0.7,0.1,1,0.2c0.3,0.1,0.5,0.3,0.6,0.5
		c0.2,0.2,0.3,0.5,0.3,0.8c0.1,0.3,0.1,0.7,0.1,1.1v2.8c0,0.2,0,0.4,0,0.6c0,0.2,0,0.4,0.1,0.5s0.1,0.2,0.1,0.3
		c0.1,0.1,0.1,0.1,0.2,0.2c0.1,0.1,0.2,0.1,0.3,0.1v0.5h-3.5v-0.5c0.2-0.1,0.4-0.1,0.5-0.2c0.1-0.1,0.1-0.3,0.2-0.4c0-0.2,0-0.5,0-1
		v-2c0-0.4,0-0.7,0-0.9c0-0.2,0-0.4-0.1-0.6c0-0.1-0.1-0.3-0.1-0.4c-0.1-0.1-0.1-0.2-0.2-0.2c-0.1-0.1-0.1-0.1-0.2-0.1
		c-0.1,0-0.2,0-0.3,0c-0.2,0-0.4,0.1-0.6,0.2C29.3,8.9,29.1,9,29,9.3c-0.1,0.2-0.2,0.4-0.2,0.7v2.9c0,0.5,0,0.8,0,1
		c0,0.2,0.1,0.3,0.2,0.4c0.1,0.1,0.2,0.2,0.5,0.2v0.5H26v-0.5c0.2-0.1,0.4-0.2,0.5-0.3c0.1-0.1,0.1-0.3,0.2-0.4c0-0.2,0-0.5,0-1V9.7
		c0-0.4,0-0.7,0-0.8c0-0.2,0-0.3-0.1-0.4c0-0.1-0.1-0.2-0.2-0.3c-0.1-0.1-0.3-0.1-0.5-0.2V7.5z M17.8,9.6c0.2-0.5,0.4-0.9,0.7-1.2
		c0.3-0.3,0.7-0.6,1.1-0.7c0.4-0.2,0.9-0.2,1.4-0.2c1.2,0,2,0.3,2.6,1c0.6,0.6,0.9,1.6,0.9,2.8c0,0.9-0.1,1.6-0.4,2.2
		c-0.3,0.6-0.7,1-1.3,1.3c-0.5,0.3-1.2,0.4-1.9,0.4c-0.7,0-1.3-0.1-1.8-0.4c-0.5-0.3-0.9-0.7-1.2-1.3c-0.3-0.6-0.4-1.3-0.4-2.2
		C17.6,10.7,17.7,10.1,17.8,9.6z M5.1,14.6c0.2-0.1,0.3-0.1,0.4-0.2c0.1-0.1,0.2-0.1,0.2-0.2c0.1-0.1,0.1-0.2,0.1-0.4
		c0-0.2,0-0.4,0-0.6V6.6c0-0.4,0-0.6,0-0.8c0-0.1-0.1-0.3-0.2-0.4C5.5,5.3,5.3,5.2,5.1,5.2V4.7h3.6l2,6.3l2.2-6.3h3.4v0.5
		c-0.3,0.1-0.4,0.2-0.5,0.2c-0.1,0.1-0.2,0.2-0.2,0.4c0,0.1-0.1,0.4-0.1,0.8v6.6c0,0.3,0,0.6,0,0.7c0,0.2,0.1,0.3,0.2,0.4
		c0.1,0.1,0.3,0.2,0.5,0.3v0.5h-3.7v-0.5c0.2-0.1,0.4-0.1,0.4-0.2c0.1,0,0.1-0.1,0.2-0.2c0-0.1,0.1-0.2,0.1-0.3c0-0.1,0-0.4,0-0.7
		V9.4c0-0.4,0-0.9,0-1.5c0-0.6,0-1,0-1.2h-0.2C13.1,7,13.1,7.2,13,7.4c-0.1,0.2-0.2,0.5-0.4,1l-1.9,5.5H9.4l-2-6.2
		C7.3,7.4,7.2,7,7.1,6.7H6.9C7,7.5,7,8.5,7,9.7v3.5c0,0.4,0,0.6,0.1,0.8c0,0.1,0.1,0.3,0.2,0.4c0.1,0.1,0.3,0.2,0.5,0.2v0.5H5.1
		V14.6z M212.5,131.5H3.2V20.6h209.3V131.5z"/>
	<path d="M21.2,14.4c0.3,0,0.5-0.1,0.6-0.2c0.2-0.1,0.3-0.3,0.4-0.6c0.1-0.3,0.2-0.6,0.2-0.9c0-0.4,0.1-0.8,0.1-1.2
		c0-1.1-0.1-1.9-0.3-2.4c-0.2-0.5-0.6-0.8-1-0.8c-0.3,0-0.6,0.1-0.8,0.3c-0.2,0.2-0.3,0.5-0.4,1c-0.1,0.4-0.1,1-0.1,1.7
		c0,1.1,0.1,1.9,0.3,2.4C20.3,14.1,20.7,14.4,21.2,14.4z"/>
</g>
<path d="M170.8,80.3c-0.1-1-0.3-1.7-0.4-2.7c-0.1-0.8,0-1.7-0.1-2.5c-0.3-0.1-0.6-0.3-0.9-0.4c-0.5,1.3,0.2,3.2,0.4,4.5
	c0.3,1.9,0.2,3.7,0.4,5.6c0,0.4,0.1,0.8,0.2,1.1c0.5,0,1,0,1.5,0.1c0-1.1-0.1-2.2-0.5-3.2C171.3,81.9,170.9,81.4,170.8,80.3z"/>
<path d="M137.2,85.6c0,0-0.8-0.2-1.1-0.6c-0.3-0.4-0.4-2.2-0.4-2.2s0-1.2,0.5-1.4c0.5-0.2,0.5-0.2,0.5-0.2l-0.2-2.8l-0.3-0.7H132v-8
	c0,0,2.2-3.6,3.3-3.7c1.1-0.1,1.1-0.1,1.1-0.1s2.7,1.1,3.4,2.5c0.7,1.4,2.1,3.3,2.1,4.1c0,0.8,0.2,4.8,0.2,4.8l-2.9,0.3l-1.1,0.9
	l-0.1,1.9c0,0,0.6,0.3,1.1,0.6c0.4,0.3,1.3,0.5,1.3,0.5l4.9-3.2c0,0-0.2-1.2,0.3-1.9c0.5-0.8,1-1.4,1-1.4s1.4-4.5,1.9-5.6
	c0.1-0.1,0.1-0.2,0.2-0.4c-0.6-0.2-1.1-0.3-1.7-0.5c-0.2,0-0.3-0.1-0.5-0.1c-3.3-1.1-4-2.7-6.5-5.3c-1.7-1.8-4-1.6-6-2.1
	c-1.2-0.3-2.5-1.2-3.8-1c-1.4,0.3-2.5,1.3-4.1,1.4c-1.2,0.1-2.3,0.2-3.1,1.5c-0.4,0.6-0.4,1.9-0.9,2.2c-0.5,0.4-2.5-0.6-3-1
	c-1.6-1.4-2.1-4.8-4-6c-1.2-0.7-2.2-0.9-3.3-2.2c-2.4-3.1-3.5-6-6.9-3.8c-1.2,0.8-2.5,0.9-3.8,1.7c-2.7,1.7-4.4,4.9-7.1,6.4
	c-1.2,0.7-2.6,1.4-3.8,2.3c-0.5,0.4-0.7,1.1-1.4,1.4c-0.8,0.3-1.8,0-2.6,0c-3.3-0.2-5.9-0.5-8.5,2c-1.5,1.5-3.3,2.1-5.1,2.3
	c-1.7,0.2-3.6-0.8-5.2-0.3c-0.9,0.3-1.4,1.5-2.2,2c-0.9,0.5-1.9,0.1-2.9,0.3c-1.1,0.3-2.2,0.5-3.2,0.5c-0.6,0-1.9-0.8-2.4-0.7
	c-3.1,1.1-6.1-3.7-9.2-1.6c-1.4,0.9-1.8,2.8-3.6,3.1c-1.6,0.3-2.7,0.1-4.2,1.2c-3.3,2.4-6.4,2.2-10,2.9c-1,0.2-3.8,1.4-4.7,0.6
	c-0.8-0.8-0.7-3.7-1.7-4.3c-1.5-0.9-2.1,2.5-2.6,4.2c-0.5,1.9-3.3,2.1-4.7,2.8c-2.3,1-4.5,2.1-6.9,2.8C7.6,82,4.2,82.2,3,83.1
	c-0.8,0.7-0.9,2.1-1,3c-0.1,1.1-0.2,2.5-0.1,3.7c-0.1-1.2-0.1-2,0.1-2.1C5.5,87.2,9.9,88,13.5,88c3.7,0,7.5-0.1,11.2,0
	c0.4,2.9,5.5,0.6,7.7,0.8c1,0.1,2,0.2,3,0.2c1.3,0.1,2.5,0,3.8-0.3c1.5-0.4,1.6-1.6,2.9-2.1c2.3-1,9.4,1.2,9.1-3.8
	c2.9-0.1,5.9-0.1,8.9,0c1.5,0,1.9,0.3,2.9,0.8c0.1,0,0.6,0.9,0.9,1c2,1.1,5.5,0,7.7,0.1c2.6,0.2,2.5,0.6,4.5,1.9
	c1.3,0.9,3.6,0.5,5.4,0.5c3,0,6.1,0.1,9.2,0.3c0.2,2.6-0.1,3,2.9,3.2c2.5,0.1,5,0,7.4,0c6.4,0,12.8,0.5,19.2,0.5
	c2.4,0,10.8,2,10.7-2.3c2.2-0.3,4.5-0.2,6.7-0.1L137.2,85.6z"/>
<path d="M154.6,85.5l0.1-2.7c0,0,0.2-1.1,0.4-1.4c0.2-0.3,0.2-0.3,0.2-0.3l-0.1-1.2v-2.6c0,0-1-1.7-0.9-3.1c0.1-1.4-0.6-0.8-0.6-0.8
	l-0.4,2.5c0,0,0,1.5-0.5,2.1c-0.5,0.6-1.8,1.7-1.8,1.7l-0.2,1.1c0,0-0.1,0.6-1.1,0.7c-1,0.1-0.4-0.6-1.3-0.6c-0.9,0-1.4,0.2-1.4,0.2
	l-3,1.4l-3.1,1.5c0,0,0.1,0.6-0.5,0.9c-0.6,0.2-1.5,0.2-1.5,0.2l0.4,3.5c2.4,0.2,4.8,0.3,7.2,0.2c2.5-0.1,3.3-1.9,5.2-2.9
	C152.4,85.6,153.4,85.5,154.6,85.5z"/>
<g>
	<path d="M172.2,98.2c0,0.9,0,1.7,0,2.6c0,0.7,0,1.4,0,2c0,0.4-0.2,1.1-0.1,1.5c0.1,0.3,0.3,0.6,0.5,0.9c0.2,0.4,0.1,0.6,0.1,1
		c0,0.3,0.1,0.9,0,1.1c-0.1,0.2-0.4,0.1-0.5,0.3c-0.1,0.2-0.1,0.4-0.1,0.6c-0.6-0.1-0.4,0.8-0.4,1.3c0,0.7,0,1.5,0,2.2
		c0,1-0.2,2-0.1,3c0,0.1,0.4,0.2,0.5,0.3c0.1,0.2,0.1,0.3,0.1,0.5c0,0.4-0.2,0.7-0.2,1c0,0.4,0.4,0.6,0.4,1c0,0.3,0,0.7-0.2,1
		c-0.1,0.1-0.3,0.2-0.3,0.3c-0.1,0.2,0,0.5,0,0.7c-0.2,0.5-0.8,0.6-1.2,0.7l-0.4,1.8l-0.3,1.8l-0.1,3.2l0.3,1.4l0.5,1.3l0.3,1.6
		l-0.2,0.7l-0.8,0.1l-3.6,0.1l-0.6-4.1l0.3-0.5v-7.3l-0.3-1.1l-0.5-0.5l-0.1-1.3c0-1.2,0-2.4,0-3.7c0-0.8,0-1.7,0-2.5
		c0-0.3,0.1-0.7,0-0.9c-0.1-0.2-0.3-0.2-0.4-0.4c-0.1-0.2,0-0.4,0.1-0.6c0.1-0.9-0.4-0.5-0.7-0.9c-0.4-0.6,0.6-2.6-0.4-2.7
		c-0.1-0.9,0-1.8-0.1-2.8l-0.2-1.9l-0.6,2.7l-0.3,1.5l-0.3,0.6l0.1,5l-0.1,3.9c0,0,0.1,1.9,0.1,1.9c0,0.2,0.6,0.7,0.7,1
		c0.2,0.7,0,1.1-0.6,1.5c0,0.6-0.4,5-0.4,5l0.2,1.7l0.2,1.7v1.3l-0.2,0.6h-2.5h-2.2l-0.4,0.3l-3,0.3H151l-1.2-0.4c0,0-0.4-0.5-0.3-1
		c0.1-0.4,1-1,1-1l2.6-0.2c0,0,1.1-0.5,1.7-1.3c0.6-0.7,1.2-1.7,1.2-1.7l-0.2-6.5l-0.4-0.2l-0.3-1.9v-2.6l-0.4-1.2l-0.4-2.1
		c0,0-0.4-3.3,0.1-5.5c0.5-2.1-0.5-5.7,0.3-7.2c0.9-1.5,0.5-3.1,0.5-3.1l0.6-4.9l0.2-5.7c0,0,0.2-1.1,0.4-1.4
		c0.2-0.3,0.2-0.3,0.2-0.3l-0.1-1.2v-2.6c0,0-1-1.7-0.9-3.1c0.1-1.4-0.6-0.8-0.6-0.8l-0.4,2.5c0,0,0,1.5-0.5,2.1
		c-0.5,0.6-1.8,1.7-1.8,1.7l-0.2,1.1c0,0-0.1,0.6-1.1,0.7c-1,0.1-0.4-0.6-1.3-0.6c-0.9,0-1.4,0.2-1.4,0.2l-3,1.4l-3.1,1.5
		c0,0,0.1,0.6-0.5,0.9c-0.6,0.2-1.5,0.2-1.5,0.2l4.8,46.3l-1.3,0.1l-5.1-45.9c0,0-0.7-0.2-1.1-0.6c-0.3-0.4-0.4-2.2-0.4-2.2
		s0-1.2,0.5-1.4c0.5-0.2,0.5-0.2,0.5-0.2l-0.2-2.8l-0.3-0.7h-4.3v-8c0,0,2.2-3.6,3.3-3.7c1.1-0.1,1.1-0.1,1.1-0.1s2.7,1.1,3.4,2.5
		c0.7,1.4,2.1,3.3,2.1,4.1c0,0.8,0.2,4.8,0.2,4.8l-2.9,0.3l-1.1,0.9l-0.1,1.9c0,0,0.6,0.3,1.1,0.6c0.4,0.3,1.3,0.5,1.3,0.5l4.9-3.2
		c0,0-0.2-1.2,0.3-1.9c0.5-0.8,1-1.4,1-1.4s1.4-4.5,1.9-5.6c0.5-1.1,0.5-2.7,1.9-4.8c1.4-2.1,2.5-2.4,3.3-2.4s4-1.8,4-1.8
		s1.1-1,1.3-1.5c0.2-0.5-0.2-0.7-0.2-0.7s-2.4-0.6-3.3-1.6c-1-1-1.9-3-1.9-3.9c0-0.9,1.5-3.3,2.9-4c1.4-0.6,2.5-1.1,2.5-1.1l0.7-1.2
		c0,0,1.2-0.6,1.7-0.6c0.5,0,2.1,0.5,2.1,0.5s0.8,1,1.1,1.9c0.3,1,4.7,0.6,5,4.7c0.3,4.1-4.3,5.5-4.3,5.5c0,0.2-0.2,0.7-0.1,0.8
		c0.2,0.3,0.5,0,0.7,0.3c0.3,0.3,0,0.7,0.3,1c0.1,0.1,0.8,0.3,0.9,0.3l3.9,0.5c0,0,2.1,0.9,2.7,1.7c0.5,0.9,1.5,5.5,1.5,5.5
		s0.1,7.2,0.1,7.2c0,0.4-0.4,0.9-0.3,1.3c0.1,0.2,0.4,0.3,0.5,0.5c0.1,0.2,0.1,0.6,0.1,0.9c-0.1,0.9-0.5,1.8-0.7,2.7
		c-0.1,0.9,0,1.9,0,2.7c0,0.8-0.1,1.6-0.1,2.3c-0.1,1.1,0.3,1.4,0.6,2.3c0.2,0.7,0,1.6,0,2.3c0,0.5,0.4,1.7,0.3,2
		c-0.2,0.6-1.2,0.9-1.8,1c-0.7,0.1-0.8-0.2-1.3-0.7c-0.3-0.3-0.9-0.3-1.1-0.5c-0.2-0.2,0-0.8,0.1-1c0.2-0.9,0.5-1.7,0.5-2.6
		c0-2,0.2-4.2-0.4-6c-0.3-0.9-0.7-1.4-0.8-2.4c-0.1-1-0.3-1.7-0.4-2.7c-0.1-0.9,0-1.8-0.1-2.7c-0.1-0.4-0.1-0.7-0.5-0.8
		c-1.2,1.3-0.2,3.7,0,5.1c0.3,1.9,0.2,3.7,0.4,5.6c0.2,1.5,0.9,2.5,0.9,4.1c0,1.5-0.3,3-0.4,4.5C172,95.6,172.4,96.8,172.2,98.2z"/>
</g>
<g>
	<path  d="M188.2,68c-0.9,0.2-1.6,1.7-1.8,1.9c-0.3,0.2-0.3,0.8-0.4,1.4c0,0.4,0.2,0.8,0.1,1.1c0,0.6-0.5,1.1-0.4,1.7
		c0.1,0,0.3,0,0.4,0.1c0.1,0.1,0,0.3,0.1,0.4c0,0.1,0.2,0.2,0.2,0.3c0.1,0.3,0.1,0.8,0.4,1c0.5,0.3,0.9-0.2,1.4-0.1
		c0.2,0.1,0.8,0.8,0.3,1l-1.8,0.9c0,0-2.1,0.9-2.3,1.6c-0.2,0.6-0.3,1.2-0.3,1.2c-0.5,4.2-0.2,8.4-0.2,12.5c0,0.8-0.2,1.7,0,2.4
		c0.1,0.5,0.6,0.7,0.7,1.2c0.2,0.6,0.1,1.3,0.2,1.9c0,1.7-0.2,3.5-0.1,5.2c0.1,1.1,0.3,2.6,0.3,2.6l0.1,1.6c0,0-0.1,0.1-0.1,0.5
		c0,0.4,0.4,0.7,0.4,0.7l-0.2,0.9c0,0-0.5,0.4-0.4,0.9c0.1,0.5,0.2,0.9,0.2,0.9l0.1,1.7c0,0-0.6,0-0.9,0.2c-0.3,0.2-0.4,0.7-0.4,0.7
		l0.3,0.4l0.4,3.1c0,0,0.5,2.3,0.6,2.6c0.1,0.3,0.1,1.1,0.1,1.1s-0.2,0.3-0.6,0.7c-0.3,0.4-0.7,1.1-0.8,1.5c0,0.4-0.1,0.8-0.1,0.8
		s0.9,0.3,1.4,0.4c0.5,0.1,1.5-0.3,1.9-0.5c0.4-0.2,1.2-0.8,1.2-0.8l0.1-0.4l-0.2-0.7c0,0-0.1-0.6-0.1-1.2c0.1-0.6,0.4-3.1,0.4-3.1
		l0.6-3.5l0.3-0.6l-0.4-0.5l-0.5-0.3l0.1-3l0.2-0.5l-0.3-0.4l0.1-0.9c0,0,0.3-0.6,0.3-1.1c0-0.4-0.1-1.2-0.1-1.2l-0.1-2.2l0.2-3.1
		l0.3-0.3l0.1,2.5c0,0,0.4,1.2,0.4,1.7c0,0.5,0.1,1.2,0.1,1.2s-0.4,0.3-0.4,0.7c0,0.5,0.4,0.7,0.4,0.7s0,0.8,0,1.4
		c0,0.6,0.4,0.8,0.4,0.8l-0.1,0.6c0,0-0.2,0.6-0.3,1.2c0,0.6,0.4,0.8,0.4,0.8s-0.1,1.1,0,1.5c0.1,0.4,0.6,2.1,0.6,2.1l-0.2,3.1
		c-0.2,1.6-0.1,3.3,0,4.9c0,0.5,3.4-0.2,3.8-0.8c0.6-0.9-0.1-3.5-0.2-4.5l-0.2-1.6l0.2-3.9c0,0,0.6-0.4,0.6-1.1
		c0-0.6-0.7-0.9-0.7-0.9l-0.1-0.9c0,0,0-0.8,0-1.2c0-0.4-0.5-0.7-0.5-0.7l-0.1-0.4l0.5-0.6c0,0,0.1-0.4,0.1-0.8
		c-0.1-0.4-0.2-0.4-0.2-0.4s0.3-5,0.5-6.4c0.2-1.4,0.1-5,0.1-5s0.6-0.8,0.7-1.4c0.1-0.5-0.2-1-0.2-1.4c-0.1-0.4-0.5-1.8-0.5-1.8
		v-3.7c0.1-1.3,1.2-9-0.6-9.6c2,0.8,1.2,2.7,1.9,4.4c0.4,1,0.6,1.6,1.9,1.7c0-1.1-0.5-1.2-0.8-2.3c-0.3-1.1-0.2-2.4-0.2-3.6
		c0-1.4,0.1-2.9-0.4-4.3c-0.2-0.6-0.5-1.3-1-1.7c-0.2-0.1-1.8-0.4-1.7-0.3c0,0-0.9-1.7-1.4-2.4c-0.6-0.7-2.5-0.9-2.5-0.9
		S189.1,67.7,188.2,68z"/>
	<path  d="M185.7,84l-2.2,2.8l-2.2,3l-0.6,0.2l-3.8,2.9c0,0,0-0.1,0,0.8c0,1.2-1,1.6-2,1.7c-0.2,0-1.5,0.1-1.7,0
		c-0.6-0.4,0-0.7,0-1.4c-0.3,0-0.3-0.2-0.6-0.3c-0.4-0.7-0.1-1.9,0.1-2.6c0.4-1.6,0.8-3.6,0.6-5.2c-0.2-1.5-0.9-2.9-1.3-4.4
		c-0.5-2.3-0.8-7.3-0.8-7.3l4.4-2.9l0,3.3c0,0-0.7,0.9-0.3,2.2c0.3,1.3,0.5,1.2,0.8,2.9c0.2,1.6,0.1,8.7,0.1,8.7s0.5,0.2,0.5,0.8
		c0,0.5-0.3,1.5-0.3,1.5l2.4-2.5c0,0,1.4-0.9,1.8-1.7c0.4-0.8,1.8-3,1.8-3c0.5-1,1-2.1,1.6-3.2c0.7-1.2,2.9-2.8,4.2-2.8l1.3,3.8
		l-1.1,3.4L185.7,84z"/>
</g>
<path d="M160.9,104.3l-0.3,0.6l0.1,5l-0.1,3.6c1,0.5,2,1,3,1.3c0-0.6,0-1.3,0-1.9c0-0.8,0-1.7,0-2.5c0-0.3,0.1-0.7,0-0.9
	c-0.1-0.2-0.3-0.2-0.4-0.4c-0.1-0.2,0-0.4,0.1-0.6c0.1-0.9-0.4-0.5-0.7-0.9c-0.4-0.6,0.6-2.6-0.4-2.7c0-0.5,0-0.9,0-1.4
	c-0.3,0-0.7,0-1,0L160.9,104.3z"/>
<path d="M149.1,108.4c0.9,0.7,2.1,0.8,3.1,1.1c0.3,0.1,0.5,0.2,0.7,0.3l-0.2-0.8c0,0-0.4-3.3,0.1-5.5c0-0.2,0.1-0.4,0.1-0.5
	c-1.8-0.1-3.6-0.3-5.3-0.4c-3.2-0.2-1.1,1.8-0.2,3.3c0.3,0.6,0.6,1.2,1,1.8C148.7,108,148.9,108.2,149.1,108.4z"/>
<g>
	<path d="M213.6,125.2c-1.4-0.9-7.4-0.5-9-0.7c-3.2-0.4-6.3-1.3-9.4-1.8c-1.2-0.2-2.3,0-3.5-0.1c-1.3-0.1-2.4-0.9-3.7-1
		c-1.7-0.1-3.7-0.1-5.4,0c-2.3,0.2-4.1,1.9-6.3,2.4c-2.5,0.6-5.2,0.5-7.8,1l0,1.2l0.3,1.4l0.5,1.3l0.3,1.6l-0.2,0.7l-0.8,0.1
		l-3.6,0.1l-0.6-4.1l0.3-0.5v-1.3c-1.3,0.1-2.6,0.1-3.9,0l0.2,1.3v1.3l-0.2,0.6h-2.5H156l-0.4,0.3l-3,0.3h-2.8l-1.2-0.4
		c0,0-0.4-0.5-0.3-1c0.1-0.4,1-1,1-1l2.6-0.2c0,0,1.1-0.5,1.7-1.3c0.2-0.2,0.4-0.5,0.5-0.7c-1.8-0.4-3.6-0.9-5.6-0.8
		c-1.9,0.1-3.7,0.2-5.4,0.5l0.8,7.6c9.4-0.2,18.8-0.3,28.2,0.7c5.2,0.6,10.7,0.7,16.1,0.7c4.5,0,8.9-0.9,13.4-1.3
		c3.9-0.4,9.4,0.8,13-0.6C214.6,129.5,215.3,126.3,213.6,125.2z"/>
	<path d="M141.7,124.5c-3.5,0.5-7,1.2-10.6,1.8c-5.6,0.9-10.3,1.5-16,1.5c-6.1,0-12.1,1-18.1,1.8c-5.2,0.6-8.7,1.9-13.8,0.1
		c-3.2-1.1-5.5-1.5-8.9-1.8c-8.4-0.7-16-1.1-24.4-0.2c-6.8,0.7-13.3,0.6-20-0.5c-5.8-0.9-11.5-0.7-17.5-0.7c-2.4,0-4.9-1.1-7.4-1.2
		c-4.7-0.1-3.2,3.6-3,7.2c18.9,1,38.1,0,57,0c9.8,0,19.6,0.4,29.4,0c9.8-0.4,19.9-1.1,29.6-0.7c5.1,0.2,10.2,0,15.3,0
		c3.1,0,6.2,0,9.3-0.1L141.7,124.5z"/>
</g>
<g>
	<path d="M115.7,122.9c0,0.1,0,0.2,0,0.3C115.7,123.1,115.7,123,115.7,122.9z"/>
	<path d="M141.6,124.7c-0.7,0.1-1.7,0.1-1.8,0.1c-1.1,0-1.4-0.6-1.3-1.7c0-1.2,0.9-1.4,1.3-2.3c-0.6,0.4-1.3,0.5-1.6,1.2
		c-0.2,0.3-0.3,0.9-0.4,1.4c-0.2-1.4-0.5-2.8-1-4.2c0,1.6,0.6,3.3-0.1,4.9c-0.4-1.2-0.1-2.6-0.7-4c0,1.3,0.3,3.8-0.8,4.7
		c-0.9,0.7-1.7-0.1-1.6-1c0.1-0.8,0.3-1.6,0.5-2.4c0.1-0.4-0.1-1.8,0.1-2c-0.6,0.9-1.1,2-1.5,2.9c-0.3-1.9,0.4-3.9,0.5-5.8
		c-0.3,1.2-0.7,2.2-1.1,3.4c-0.4,1.1-0.2,2.1-0.6,3.2c-0.3-1.5-0.3-4.1-0.5-5.6c0.1,1.3-0.7,4.4-1.1,5.6c-1.9-1.3-1.8-3.3-2.3-5.4
		c-0.2,2.5-0.2,4.5,1.4,6c-1.9-1.2-3-1.2-4.4-2.9c0.5,1.2,1.7,2.2,2.1,3.2c-1-0.5-1.9-1-2.8-1.7c0.2,0.9,0.9,1.8,0.9,2.6
		c-0.8,0.2-1.5,0.2-2.3,0.4c0.2,0-0.7-1.7-0.8-1.8c0,0.8,0.2,1.6-0.2,2.4c-0.3-1.2,0.1-2.5-0.4-3.8c0.1,1.3-0.2,2.7-0.3,4
		c-0.2-0.4-0.3-1.1-0.6-1.6c-0.4-0.6-1.1-0.8-1.7-1.2c0.4,0.2,1.4,1.7,1.4,2.2c0,0.8-1.2,0.8-1.7,0.8c-1.1,0.1-0.7-0.9-0.7-1.8
		c0-0.7,0.1-1.5,0-2.2c-0.1,0.2-0.3,0.5-0.3,0.8c0,0.3,0.1,0.6,0,1c-0.1,0.6-0.5,1.2-0.5,1.8c-0.8,0.3-0.9-1.9-0.9-2.7
		c0,0.7-0.4,2.1-0.5,2.6c-0.7-0.7-0.1-2.7,0.1-3.6c-0.2,0.7-0.7,1.3-0.8,2c-0.1,0.6,0.1,1.2,0,1.8c-0.1-0.9-0.7-1.9-1-2.7
		c-0.1,1.6,0.9,3.2-0.8,3.8c-1.5,0.6-3.3,0.4-4.8,1c-1.8,0.6-2.2,3.2-0.1,3.9c1.4,0.4,3.9-0.3,5.4-0.5c1.1-0.1,2.2-0.2,3.2-0.3
		c2.7-0.2,5.4-0.3,8.1-0.5c2.9-0.2,5.8-0.2,8.7-0.6c1.7-0.2,3.2-1,4.9-1.4c1.6-0.4,3.1-0.7,3.9-1.6L141.6,124.7z"/>
</g>
<g>
	<path d="M154.7,120.9l-0.1-3.7l-0.4-0.2l-0.3-1.9v-2.6l-0.4-1.2l0,0c-1.2-0.6-2.4-1.2-3-1c-4.3-0.8-4.1-6.7-8.3-7.8
		c-0.4-0.1-0.9-0.2-1.3-0.3l1.8,17c2.1,0.1,4.2,0.3,6.1,0.5c0.2,0,0.4,0.1,0.7,0.1l-2.1,0c0.3,0,0.6,0,0.8,0.1c1,0,1.9,0.1,2.9,0.2
		C152.2,120.3,153.5,120.6,154.7,120.9z"/>
	<path d="M139.2,101.7c-2.3-0.5-4.6-0.9-6.8-1.3c-3.7-0.7-7.2-1.5-11-1.2c-3,0.3-6,1.2-9,1.4c-6.2,0.3-11.9-0.8-17.8-1.9
		c-5.6-1.1-11.9-2-17.7-1.3c-3.1,0.3-6.2,1.1-9.2,2c-3.6,1.2-5.1,1.2-7.4,4.3c-1,1.4-1.9,3-3.2,4.2c-1.6,1.5-3.3,2.7-4.7,4.4
		c-0.7,0.8-1.3,1.7-1.9,2.5c-0.9,1.2-1.9,2.4-3.3,3.3c-0.8,0.5-1.5,0.4-2.2,1c-0.8,0.6-1.2,1.7-1.9,2.4c-0.8,0.8-2,1.3-1.8,2.6
		c5.2,0.3,10.9,0.4,15.9-0.3c6.4-0.9,12.6,0.2,18.8,1.2c7.9,1.3,16.9,1.5,24.6-0.7c1.5-0.4,2.9-1.1,4.4-1.2c1.3-0.1,2.6,0.2,3.9,0
		c2.4-0.3,5.4-1.5,7.6-2.5c6.8-3,15-1.6,22.2-1.6c0.7,0,1.4,0,2.2,0L139.2,101.7z"/>
	<path d="M170.6,118.3c0,0.1,0,0.3,0,0.4c-0.2,0.5-0.8,0.6-1.2,0.7l-0.4,1.8l0,0c1.5-0.2,2.9-0.6,4-1.1c0.5,0,0.9,0,1.4,0
		C173.1,119.6,172,118.7,170.6,118.3z"/>
	<path d="M164.8,119.6l-0.3-1.1l-0.5-0.5l-0.1-1.3c0-0.1,0-0.2,0-0.3c-1-0.4-2-0.8-2.9-1.3c0,0.4,0,0.7,0,0.7c0,0.2,0.6,0.7,0.7,1
		c0.2,0.7,0,1.1-0.6,1.5c0,0.4-0.2,2.1-0.3,3.5c1.2,0,2.6,0,4-0.1V119.6z"/>
</g>
<g>
	<path d="M184,119.8c-0.1-0.3-0.6-2.6-0.6-2.6l-0.4-3.1l-0.3-0.4c0,0,0.1-0.5,0.4-0.7c0.3-0.2,0.9-0.2,0.9-0.2l-0.1-1.7
		c0,0-0.2-0.3-0.2-0.9c-0.1-0.5,0.4-0.9,0.4-0.9l0.2-0.9c0,0-0.4-0.3-0.4-0.7c0-0.4,0.1-0.5,0.1-0.5l-0.1-1.6c0,0-0.2-1.2-0.3-2.3
		c-1.6,0-3.2,0-4.7,0.1c-2.7,0.3-5.4,0.3-8.1,0.3c0.1,0.2,0.3,0.4,0.4,0.7c0.2,0.4,0.1,0.6,0.1,1c0,0.3,0.1,0.9,0,1.1
		c-0.1,0.2-0.4,0.1-0.5,0.3c-0.1,0.2-0.1,0.4-0.1,0.6c-0.6-0.1-0.4,0.8-0.4,1.3c0,0.7,0,1.5,0,2.2c0,1-0.2,2-0.1,3
		c0,0.1,0.4,0.2,0.5,0.3c0.1,0.2,0.1,0.3,0.1,0.5c0,0.4-0.2,0.7-0.2,1c0,0.4,0.4,0.6,0.4,1c0,0.2,0,0.3,0,0.4
		c1.1,0.5,2.2,1.2,3.3,1.8c1.6,1,4,1,5.8,1.2c1.2,0.1,2.6,0.2,4,0.3C184.1,120.1,184,119.9,184,119.8z"/>
	<path d="M214.7,99.7c-1.3-0.5-2.5,0.3-3.7,0.5c-1.7,0.3-3.5,0.7-5.3,1.1c-3.8,0.7-7.9-0.2-11.7,0.5c-0.1,0-0.2,0-0.3,0.1
		c-0.1,1.8-0.3,3.8-0.3,3.8s0.1,0,0.2,0.4c0.1,0.4-0.1,0.8-0.1,0.8l-0.5,0.6l0.1,0.4c0,0,0.5,0.3,0.5,0.7c0,0.4,0,1.2,0,1.2l0.1,0.9
		c0,0,0.8,0.3,0.7,0.9c0,0.6-0.6,1.1-0.6,1.1l-0.2,3.9l0.2,1.6c0,0.4,0.1,1,0.2,1.6c0.4,0,0.9,0,1.3,0c1.7,0,3.4-0.1,5-0.1
		c1.7-0.1,3.5-0.1,5.1,0c1.4,0.1,2.8,0.5,4.2,0.6c1,0,3,0.4,3.9,0.1c1.4-0.5,0.9-3.5,0.9-4.8C214.5,110.2,214.9,104.9,214.7,99.7z"
		/>
	<path d="M190.2,118.5l0.2-3.1c0,0-0.5-1.7-0.6-2.1c-0.1-0.4,0-1.5,0-1.5s-0.5-0.2-0.4-0.8c0-0.6,0.3-1.2,0.3-1.2l0.1-0.6
		c0,0-0.4-0.3-0.4-0.8c0-0.6,0-1.4,0-1.4s-0.4-0.2-0.4-0.7c0-0.4,0.4-0.7,0.4-0.7s-0.1-0.8-0.1-1.2c0-0.4-0.3-1.2-0.4-1.6
		c-0.2,0-0.4,0.1-0.7,0.1l-0.1,0.7l0.1,2.2c0,0,0.1,0.7,0.1,1.2c0,0.5-0.3,1.1-0.3,1.1l-0.1,0.9l0.3,0.4l-0.2,0.5l-0.1,3l0.5,0.3
		l0.4,0.5l-0.3,0.6l-0.6,3.5c0,0-0.3,1.8-0.4,2.7c1,0,1.9-0.1,2.8-0.2c0,0,0.1,0,0.1,0C190.1,119.5,190.1,119,190.2,118.5z"/>
</g>
<path d="M213.8,83.3c-4.1-0.2-8.1,0-12.2-0.2c-2.7-0.1-5.1-0.6-7.4-1.2c-0.1,1.7-0.3,3.3-0.3,3.9v2.8c1.5,1.4,4.9,0.6,6.9,0.6
	c2.2,0,4.4,0.1,6.6,0.1c1.9,0.1,4.4-0.3,6.3,0.1C213.9,87.1,214,83.3,213.8,83.3z"/>
<g>
	<path d="M182.3,85.9l-0.2,0.3c0.2,0,0.4,0,0.6,0c0-0.3,0-0.5,0-0.8L182.3,85.9z"/>
	<path d="M175.5,77.4c0.1,0.2,0.1,0.6,0.1,0.9c-0.1,0.8-0.4,1.6-0.6,2.4c0,1.7,0,4,0,5.4c1.3,0.1,2.7,0.1,4,0.1
		c0.2-0.2,0.4-0.4,0.5-0.6c0.4-0.8,1.8-3,1.8-3c0.5-1,1-2.1,1.6-3.2c0,0,0,0,0-0.1c0-0.1,0.1-0.3,0.1-0.6c0,0,0,0,0,0
		c-2.9-0.6-5.5-1.1-8.1-1.9C175.1,77.1,175.4,77.2,175.5,77.4z"/>
</g>
</svg>
