<svg id="Layer_1" data-name="Layer 1" xmlns="http://www.w3.org/2000/svg" xmlns:xlink="http://www.w3.org/1999/xlink" viewBox="0 0 194.6 200.45"><defs><style>.cls-1{fill:none;}.cls-2{clip-path:url(#clip-path);}.cls-3{fill:#ca5d4c;}.cls-4{fill:#7abc4c;}.cls-5{fill:#008eaf;}.cls-6,.cls-7{fill:#fff;}.cls-7{font-size:24px;font-family:Swiss721BT-Bold, Swis721 BT;font-weight:700;}</style><clipPath id="clip-path" transform="translate(-7.75 -10.71)"><circle class="cls-1" cx="106.1" cy="109.15" r="66.46"/></clipPath></defs><g class="cls-2"><path class="cls-3" d="M62.74,102.48c1.86.53,7.66-.61,11.53-1.37a44.76,44.76,0,0,1,20.24.83,23.85,23.85,0,0,0,15.54-1.21c3-1.22,6.51-1.29,9.53-2.5a53.53,53.53,0,0,0,9-5C134,89.78,139.23,86,144.68,82.55c3-1.89,6-1.34,8.85.66,5.7,4,11.86,8.09,18,12.34.34,2.66.8,5.46,1.25,9.07H118.87l-8.07,10.59H59.57l-4.77-3.77H39.14c0-2.44.12-4.52.12-7.3,4.14-.73,8.86-1.46,13.12-2.22,1.42-1.14,3.63-3.8,4.63-3.75C59.2,98.29,60.89,102,62.74,102.48Z" transform="translate(-7.75 -10.71)"/><path class="cls-3" d="M43.76,132.22c42-6.37,84.72-3.12,126.57-5.23a8.67,8.67,0,0,1-.69,2.75c-.39,1.25-1.1,2.11-1.57,3.44-3.92,0-7.71.19-11.47,0-7.92-.51-15.51,1-23.1,3.06-9.14,2.48-18.37,4.63-27.61,6.73-18.79,4.27-37,1.76-54.7-5.24-1.59-.63-4.42-.65-6-1.64C44.13,135.37,44.08,134.21,43.76,132.22Z" transform="translate(-7.75 -10.71)"/><path class="cls-4" d="M166.81,136.9a4.48,4.48,0,0,1-.67,2.09,51.86,51.86,0,0,1-5.16,7.82l-.81-6.32H151.3v17.65c-1.43,1.11-2.74,2.5-4.47,3.85.32-7.21.69-14.1,1-21l-6.22.61L131.28,170.9c-4.45,2.45-8.13-3.3-13.61-3.46,1.51,2.27,2.73,4.1,4.23,6.37l-4.6,1c-1.62-3.55-3.13-6.84-4.66-10.21l-8.76-3.43,5.51,14.43c-1.11.19-2.13-.06-3,.1l-6.49-16.55-8-2.52c2,6.51,3.79,12.32,5.73,18.59L93,174.56c-1.77-6.6-3.47-13-5.27-19.7l-7-.82c1.17,6.25,2.23,11.87,3.4,18.09l-5-2c-.49-5.78-1-11.24-1.45-17.11l-6.26-2.52-3,13.38-2.54-1.48c1-3.95,1.92-7.78,3-12.11L62.64,148l-5,7c-.92-1.12-1.75-1.7-2.47-2.59,1.1-1.88,2.25-3.82,3.46-5.89-3.17-1-6.39-1.79-9.9-2.92-.53-.84-1.07-2.28-2-3.71.7-.23,7.71.89,10.62,2,16.85,6.76,34,6.89,51.53,3.15,13.65-2.92,27.33-5.74,41.09-8.06C155,136.13,161.47,136.9,166.81,136.9Zm-28.62,4.7c-4.18,1.26-8.28,1.27-10.13,3.31-4.5,5-8,10.89-12.49,17.35l11,5C130.53,158.53,134.06,150.71,138.19,141.6Zm-29.86,17.67,13.85-13.47c-8.69-.3-14.64,4.68-20.86,10.79Zm-13.06-5.36,4.6-2.79-.27-.75-10.84,1.06,0,.6Z" transform="translate(-7.75 -10.71)"/><path class="cls-3" d="M42.5,130.34l-3.28-16H54.75l3.77,3.25H134.3l10.07,8.77C109.89,126.43,76.54,125.41,42.5,130.34Z" transform="translate(-7.75 -10.71)"/><path class="cls-3" d="M146.56,126.26c-12-13.14-6.38-10.42-24.21-10.74-2.48,0-5,0-8.38,0,2.3-3.38,4.18-6.14,6.08-8.91h53.09c1.12,6.68-1,12.9-2.44,19.66Z" transform="translate(-7.75 -10.71)"/><path class="cls-5" d="M146.58,56h-81l10.75-6.6,59.75,0s4.35,2.44,8.37,4.14C144.28,54.13,146.74,55.52,146.58,56Z" transform="translate(-7.75 -10.71)"/><path class="cls-5" d="M152,60.68c1.3,1.39,3.2,2.8,5.06,4.79H55.76a8.4,8.4,0,0,1,1.44-1.8c.9-1.2,2.12-2.23,2.72-3Z" transform="translate(-7.75 -10.71)"/><path class="cls-5" d="M49.79,73c1-.59,1-2.51,1-2.51s98.18-1.11,109.77,0c1.14.11,1.54,1.15,2.43,2.48Z" transform="translate(-7.75 -10.71)"/><path class="cls-5" d="M45,82.6c10-.1,50.61,0,59.09,0-6.51,1.36-19.92,3-19.92,3l-40.67,0S43.5,82.61,45,82.6Z" transform="translate(-7.75 -10.71)"/><path class="cls-5" d="M127.58,45.64H86C86,45.3,90,44.51,90,44.17,99,39.66,116.86,42.08,127.58,45.64Z" transform="translate(-7.75 -10.71)"/><path class="cls-6" d="M160.75,169.25l.73.54-.28.34-.71-.61Z" transform="translate(-7.75 -10.71)"/></g><text class="cls-7" transform="matrix(0.06, -1, 1, 0.06, 22.57, 104.13)">M</text><text class="cls-7" transform="translate(24.12 82.57) rotate(-70.8)">O</text><text class="cls-7" transform="matrix(0.56, -0.83, 0.83, 0.56, 30.76, 64.03)">N</text><text class="cls-7" transform="translate(42.26 47.67) rotate(-42.51)">T</text><text class="cls-7" transform="translate(54.16 36.91) rotate(-29.85)">E</text><text class="cls-7" transform="translate(69.72 28.34) rotate(-16.76)">Z</text><text class="cls-7" transform="translate(85.34 23.7) rotate(-3.37)">U</text><text class="cls-7" transform="translate(104.19 22.55) rotate(12.23)">M</text><text class="cls-7" transform="translate(126.63 28.05) rotate(28.15)">A</text><text class="cls-7" transform="translate(142.59 37.29) rotate(38.5)"> </text><text class="cls-7" transform="translate(148.99 42.15) rotate(47.23)">L</text><text class="cls-7" transform="matrix(0.5, 0.87, -0.87, 0.5, 159.6, 53.7)">A</text><text class="cls-7" transform="matrix(0.28, 0.96, -0.96, 0.28, 168.26, 68.78)">N</text><text class="cls-7" transform="translate(173.3 86.69) rotate(87.59)">D</text><text class="cls-7" transform="translate(10.35 124.26) rotate(68.61)">C</text><text class="cls-7" transform="translate(19.53 145.85) rotate(53.53)">O</text><text class="cls-7" transform="matrix(0.78, 0.62, -0.62, 0.78, 34.71, 165.05)">N</text><text class="cls-7" transform="matrix(0.91, 0.42, -0.42, 0.91, 53.15, 178.8)">S</text><text class="cls-7" transform="matrix(0.98, 0.2, -0.2, 0.98, 72.5, 187.02)">E</text><text class="cls-7" transform="translate(92.94 190.63) rotate(-1.95)">R</text><text class="cls-7" transform="translate(115.06 189.17) rotate(-15.27)">V</text><text class="cls-7" transform="translate(133.71 183.65) rotate(-28)">A</text><text class="cls-7" transform="translate(152.64 172.94) rotate(-42.05)">N</text><text class="cls-7" transform="matrix(0.55, -0.84, 0.84, 0.55, 169.42, 156.88)">C</text><text class="cls-7" transform="translate(181.41 137.25) rotate(-70.23)">Y</text></svg>