<?xml version="1.0"?>
<svg xmlns="http://www.w3.org/2000/svg" id="Layer_1" data-name="Layer 1" viewBox="0 0 512 512" width="512" height="512"><path d="M418.62,338.23a36.5,36.5,0,1,0,36.5,36.5A36.542,36.542,0,0,0,418.62,338.23Zm0,61a24.5,24.5,0,1,1,24.5-24.5A24.528,24.528,0,0,1,418.62,399.23Z"/><path d="M128.21,275.22a62.59,62.59,0,1,0,62.6,62.59A62.661,62.661,0,0,0,128.21,275.22Zm0,113.18a50.59,50.59,0,1,1,50.6-50.59A50.647,50.647,0,0,1,128.21,388.4Z"/><path d="M128.21,308.76a29.05,29.05,0,1,0,29.05,29.05A29.083,29.083,0,0,0,128.21,308.76Zm0,46.1a17.05,17.05,0,1,1,17.05-17.05A17.07,17.07,0,0,1,128.21,354.86Z"/><path d="M484.463,351.47l-2.394-5.917a13.7,13.7,0,0,0-7.86-7.668,13.7,13.7,0,0,0-4.007-10.228l-4.509-4.509a13.539,13.539,0,0,0-1.092-.978h.179a6,6,0,0,0,5.9-4.894L486.9,230.787a6,6,0,0,0-.427-3.573l-7.72-17.12a6.026,6.026,0,0,0-.817-1.323,15.1,15.1,0,0,0-11.252-5.558l-57.2-1.818V122.09a6,6,0,0,0-6-6h-6.82V92.18a8.958,8.958,0,0,1,5.018-8.086l4.09-2.03a6,6,0,0,0-5.336-10.748l-4.08,2.025A20.879,20.879,0,0,0,384.66,92.18v23.91h-6.82a6,6,0,0,0-6,6v78.1c-12.659-.538-22.289-2.421-31.9-6.222-7.762-3.079-15.364-7.295-24.987-12.633-2.275-1.263-4.656-2.583-7.17-3.961a6,6,0,0,0-7.121,1.012l-17.726,17.675-15.511-16.411,11.841-11.121a6,6,0,0,0-8.215-8.748l-30.961,29.081a6,6,0,1,0,8.217,8.745l10.371-9.741,15.756,16.671-21.743,21.679a6,6,0,0,0-.592,7.81l24.226,32.849H249.25V259.4a6,6,0,0,0-2.884-5.127l-11.4-6.927V227.92a22.1,22.1,0,0,0-22.08-22.08H201.43a6.852,6.852,0,0,1-6.467-4.614l-12.32-35.761c-.064-.184-.137-.366-.218-.544a16.067,16.067,0,0,0-30.393,9.686l6.728,34.247a125.706,125.706,0,0,0-27.36-3.014H88.52V84.81a17.3,17.3,0,0,0-34.6,0V205.84H29.62a6,6,0,0,0-6,6v25.84a6,6,0,0,0,6,6h3.84a31.918,31.918,0,0,1,29.272,19.211,17.91,17.91,0,0,0-2.8,2.38l-7.47,7.84a17.957,17.957,0,0,0-4.932,13.324,17.96,17.96,0,0,0-9.993,10.111L33.6,306.623a17.972,17.972,0,0,0,.7,14.654,17.953,17.953,0,0,0-5.663,13.517l.26,10.834a17.963,17.963,0,0,0,5.934,12.9,17.938,17.938,0,0,0,.087,14.215l4.341,9.922a17.984,17.984,0,0,0,10.851,9.853,17.984,17.984,0,0,0,5.556,13.564l7.834,7.464A17.963,17.963,0,0,0,76.837,418.5a17.946,17.946,0,0,0,10.1,9.982l10.1,3.952a17.991,17.991,0,0,0,14.639-.711,17.99,17.99,0,0,0,13.1,5.676c.139,0,.281,0,.422-.006l10.834-.26a17.955,17.955,0,0,0,12.908-5.937,17.981,17.981,0,0,0,14.21-.084l9.93-4.345a18.016,18.016,0,0,0,9.842-10.854,17.823,17.823,0,0,0,13.56-5.553l7.492-7.842a17.987,17.987,0,0,0,4.926-13.331,17.973,17.973,0,0,0,2.748-1.422H312.2a6,6,0,0,0,4.832-2.444l23.821-32.366h11.5a13.647,13.647,0,0,0,.706,8.047q.1.242.2.477a13.706,13.706,0,0,0-4.4,10.066v6.38a13.691,13.691,0,0,0,3.962,9.631,13.633,13.633,0,0,0-.05,10.437l2.4,5.9a13.652,13.652,0,0,0,7.379,7.488c.16.068.321.132.483.194q-.009.255-.009.51a13.641,13.641,0,0,0,4.011,9.713l4.512,4.521a13.718,13.718,0,0,0,9.62,4.006,13.712,13.712,0,0,0,7.34,7.412l5.865,2.478a13.653,13.653,0,0,0,10.514.074q.24-.1.474-.2a13.709,13.709,0,0,0,10.072,4.4h6.37a13.7,13.7,0,0,0,9.643-3.967,13.683,13.683,0,0,0,10.426.049l5.914-2.391a13.642,13.642,0,0,0,7.489-7.387q.1-.237.192-.476a13.708,13.708,0,0,0,10.228-4.006l4.518-4.517a13.715,13.715,0,0,0,4-9.619,13.713,13.713,0,0,0,7.413-7.341l2.479-5.865a13.644,13.644,0,0,0,.074-10.514c-.064-.158-.13-.313-.2-.467a13.705,13.705,0,0,0,4.4-10.069v-6.38a13.7,13.7,0,0,0-3.968-9.646A13.687,13.687,0,0,0,484.463,351.47ZM463.75,289.11H418.755l-.745-1.451V279.3h47.58Zm-2.25,12-1.7,9.06H445.064l-2.206-.936a13.645,13.645,0,0,0-10.516-.07c-.156.063-.309.128-.461.2a13.711,13.711,0,0,0-4.338-3.144l-2.623-5.106Zm6.34-33.81H418.01v-9.81h51.67Zm4.09-21.81H418.01v-9.57a.237.237,0,0,1,.25-.24h55.51Zm-88.09-117.4h13.64v72.924l-13.64-.434ZM167.82,167.54a4.078,4.078,0,0,1,3.594,2.173l12.205,35.427a18.858,18.858,0,0,0,17.811,12.7h11.46a10.092,10.092,0,0,1,10.08,10.08v12.119L196.928,224.2a126.043,126.043,0,0,0-25.23-11.739l-7.884-40.138a3.906,3.906,0,0,1-.064-.737A4.065,4.065,0,0,1,167.82,167.54ZM65.92,84.81a5.3,5.3,0,0,1,9.058-3.737A5.232,5.232,0,0,1,76.52,84.81V205.84H65.92ZM215.085,344.05a6.09,6.09,0,0,1-3.626,2.96,6,6,0,0,0-1.874,10.594,6.025,6.025,0,0,1,2.069,7.017L207.7,374.705a5.8,5.8,0,0,1-1.748,2.408l3.791,4.64v.013l-3.834-4.625a6.082,6.082,0,0,1-4.1,1.366,5.932,5.932,0,0,0-5.342,2.772,6,6,0,0,0-.249,6.014,6.014,6.014,0,0,1-.939,6.942l-7.491,7.843a6,6,0,0,1-7.223,1.1,6,6,0,0,0-8.808,6.171,6.03,6.03,0,0,1-3.5,6.428l-9.917,4.339a6.013,6.013,0,0,1-6.857-1.486,6,6,0,0,0-10.173,2.262,6,6,0,0,1-5.573,4.244l-10.826.26a5.96,5.96,0,0,1-5.891-4.338,6,6,0,0,0-10.592-1.869,6.023,6.023,0,0,1-7.019,2.067L91.315,417.3a5.994,5.994,0,0,1-3.792-5.884,6,6,0,0,0-8.781-5.6,6.007,6.007,0,0,1-6.953-.951l-7.841-7.47a6.011,6.011,0,0,1-1.1-7.229,6,6,0,0,0-6.171-8.808,6.012,6.012,0,0,1-6.418-3.5l-4.343-9.927a6,6,0,0,1,1.486-6.852,6,6,0,0,0-2.253-10.164,6.015,6.015,0,0,1-4.249-5.577l-.26-10.837a6.021,6.021,0,0,1,4.348-5.893,6,6,0,0,0,1.846-10.6,5.991,5.991,0,0,1-2.054-7.013l3.94-10.079a5.984,5.984,0,0,1,5.895-3.792,6,6,0,0,0,5.6-8.781,6.018,6.018,0,0,1,.94-6.953l7.47-7.839a5.942,5.942,0,0,1,2.916-1.673,6.062,6.062,0,0,1,4.321.567,6,6,0,0,0,8.81-6.181,5.99,5.99,0,0,1,3.509-6.408l9.918-4.349A6.01,6.01,0,0,1,104.944,257a6,6,0,0,0,10.164-2.254,6.009,6.009,0,0,1,5.585-4.248l10.829-.26a5.961,5.961,0,0,1,5.89,4.331A6,6,0,0,0,148,256.434a6.014,6.014,0,0,1,7.021-2.056l10.08,3.94a6.025,6.025,0,0,1,3.8,5.908,6,6,0,0,0,8.787,5.584,6.007,6.007,0,0,1,6.949.944l7.834,7.465a6.007,6.007,0,0,1,1.1,7.226,6,6,0,0,0,6.167,8.816,6.015,6.015,0,0,1,6.428,3.516l4.3,9.82.04.1.082.195c.017.051.035.1.053.152a6.058,6.058,0,0,1-1.621,6.5,6,6,0,0,0,2.247,10.174,6.02,6.02,0,0,1,4.255,5.585l.26,10.816A5.829,5.829,0,0,1,215.085,344.05ZM206.31,283.1a18,18,0,0,0-5.551-13.564l-7.84-7.47a17.993,17.993,0,0,0-13.333-4.934,17.973,17.973,0,0,0-10.111-9.99L159.4,243.2a17.977,17.977,0,0,0-14.645.7,17.988,17.988,0,0,0-13.525-5.661l-10.814.26a17.944,17.944,0,0,0-12.925,5.932,17.952,17.952,0,0,0-14.207.081l-9.915,4.347a17.935,17.935,0,0,0-9.426,9.724,43.923,43.923,0,0,0-38.32-26.853V217.84H131.4a114.321,114.321,0,0,1,59.292,16.617l35.161,21.379,3.114-5.121h.006l-3.12,5.133,11.4,6.926V299.99H220.243l-3.075-7.022A17.981,17.981,0,0,0,206.31,283.1Zm102.856,92.66H220.177l2.654-6.772a18,18,0,0,0-.72-14.645,18.053,18.053,0,0,0,1.316-1.393h7.9a6,6,0,1,0,0-12h-3.54c0-.041,0-.082,0-.124L227.528,330A17.968,17.968,0,0,0,221.6,317.1a17.877,17.877,0,0,0,1.311-5.107H243.25a6,6,0,0,0,6-6V278.87h35.928l5.969,8.093L268.94,340.95H250a6,6,0,0,0,0,12h75.953Zm48.742-34.81H281.915L301.969,292.2l64.952,1.21h.113a6,6,0,0,0,.11-12l-66.091-1.231-36.226-49.117,41.121-41,3.186,1.765c10,5.548,17.9,9.93,26.389,13.3,11.4,4.511,22.657,6.643,37.639,7.128l93.147,2.96a3.118,3.118,0,0,1,1.912.728l3.492,7.745H418.26a12.259,12.259,0,0,0-12.25,12.24v46.954l-19.427-.747a6,6,0,1,0-.461,11.991l22.153.853,5.216,10.152a13.708,13.708,0,0,0-7.7,3.809,13.683,13.683,0,0,0-10.437-.051l-5.911,2.4a13.7,13.7,0,0,0-7.67,7.863,13.755,13.755,0,0,0-10.239,4.008l-4.488,4.5a13.68,13.68,0,0,0-4.027,9.624A13.756,13.756,0,0,0,357.908,340.95ZM476.38,377.92a1.764,1.764,0,0,1-1.74,1.74h-2.13a6,6,0,0,0-2.316,11.535l1.936.81a1.768,1.768,0,0,1,.924,2.289l-2.48,5.867a1.774,1.774,0,0,1-2.288.934,6,6,0,0,0-6.566,9.77,1.765,1.765,0,0,1,0,2.452l-4.511,4.511a1.768,1.768,0,0,1-2.465,0l-1.5-1.5a6,6,0,0,0-9.8,6.51l.795,1.946a1.769,1.769,0,0,1-.958,2.275l-5.919,2.393a1.754,1.754,0,0,1-2.256-.944,6,6,0,0,0-11.556,2.236,1.778,1.778,0,0,1-1.75,1.747h-6.37a1.764,1.764,0,0,1-1.74-1.74v-2.13a6,6,0,0,0-11.525-2.34l-.83,1.96a1.766,1.766,0,0,1-2.29.923l-5.865-2.478a1.767,1.767,0,0,1-.93-2.278,6,6,0,0,0-9.766-6.576,1.77,1.77,0,0,1-2.457,0l-4.5-4.515a1.769,1.769,0,0,1,0-2.465l1.5-1.5a6,6,0,0,0-6.5-9.8l-1.965.8a1.757,1.757,0,0,1-2.268-.967l-2.4-5.909a1.747,1.747,0,0,1,.947-2.253,6,6,0,0,0-2.229-11.56,1.773,1.773,0,0,1-1.748-1.74v-6.38a1.764,1.764,0,0,1,1.74-1.74h2.12a6,6,0,0,0,2.348-11.521l-1.964-.836a1.765,1.765,0,0,1-.93-2.28l2.489-5.87,0-.01a1.753,1.753,0,0,1,2.265-.923,6,6,0,0,0,6.585-9.758,1.763,1.763,0,0,1,.01-2.464l4.49-4.5a1.778,1.778,0,0,1,2.485.007l1.51,1.5a6,6,0,0,0,9.788-6.513l-.8-1.966a1.765,1.765,0,0,1,.957-2.268l5.91-2.4a1.769,1.769,0,0,1,2.269.961A6,6,0,0,0,413.69,318.7a1.763,1.763,0,0,1,1.74-1.734h6.37a1.519,1.519,0,0,1,.319.028,1.772,1.772,0,0,1,1.431,1.712v2.12a6,6,0,0,0,11.53,2.326l.817-1.941a1.766,1.766,0,0,1,2.277-.933l1.635.694a5.961,5.961,0,0,0,2.615,1.109l1.638.695a1.756,1.756,0,0,1,.924,2.269,6,6,0,0,0,9.762,6.578,1.766,1.766,0,0,1,2.46.006l4.509,4.509a1.763,1.763,0,0,1-.014,2.47l-1.5,1.51a6,6,0,0,0,6.525,9.783l1.944-.794a1.769,1.769,0,0,1,2.275.949l2.394,5.917a1.77,1.77,0,0,1-.955,2.271,6,6,0,0,0,2.26,11.552,1.763,1.763,0,0,1,1.734,1.74Z"/></svg>
